# xmcd CD database file
#
# Track frame offsets:
#	150
#	15708
#	30536
#	45961
#	57517
#	75985
#	91908
#	106403
#	120480
#	138470
#	149068
#	164391
#	180510
#
# Disc length: 2770 seconds
#
# Revision: 2
# Processed by: cddbd v1.5.2PL0 Copyright (c) Steve Scherf et al.
# Submitted via: CDex 1.70beta2
#
DISCID=a30ad00d
DTITLE=Frank Sinatra - Duets
DYEAR=1993
DGENRE=Jazz
TTITLE0=Frank Sinatra and Luther Vandros - The Lady Is A Tramp
TTITLE1=Frank Sinatra and Aretha Frankli - What Now My Love
TTITLE2=Frank Sinatra and Barbra Streisa - I've Got a Crush On You
TTITLE3=Frank Sinatra and Julio Iglesias - Summer Wind
TTITLE4=Frank Sinatra and Gloria Estefan - Come Rain Or Come Shine
TTITLE5=Frank Sinatra and Tony Bennett - New York, New York
TTITLE6=Frank Sinatra and Natalie Cole - They Can't Take That Away From
TTITLE7=Frank Sinatra and Charles Aznavo - You Make Me Feel So Young
TTITLE8=Frank Sinatra and Carly Simon - Guess I'll Hang My Tears Out T
TTITLE9=Frank Sinatra and Liza Minelli - I've Got The World On A String
TTITLE10=Frank Sinatra and Anita Baker - Witchcraft
TTITLE11=Frank Sinatra and Bono - I've Got You Under My Skin
TTITLE12=Frank Sinatra and Kenny G - All The Way/One For my Baby
EXTD=YEAR: 1993
EXTT0=
EXTT1=
EXTT2=
EXTT3=
EXTT4=
EXTT5=
EXTT6=
EXTT7=
EXTT8=
EXTT9=
EXTT10=
EXTT11=
EXTT12=
PLAYORDER=
